<?xml version="1.0" standalone="no"?>
<!DOCTYPE svg PUBLIC "-//W3C//DTD SVG 20010904//EN"
 "http://www.w3.org/TR/2001/REC-SVG-20010904/DTD/svg10.dtd">
<svg version="1.0" xmlns="http://www.w3.org/2000/svg"
 width="700.000000pt" height="700.000000pt" viewBox="0 0 700.000000 700.000000"
 preserveAspectRatio="xMidYMid meet">
<metadata>
Created by potrace 1.11, written by Peter Selinger 2001-2013
</metadata>
<g transform="translate(0.000000,700.000000) scale(0.100000,-0.100000)"
fill="#000000" stroke="none">
<path d="M3307 6994 c-4 -4 -7 -747 -7 -1651 l0 -1643 -579 0 -579 0 -6 63
c-3 34 -8 109 -11 167 -22 380 -109 800 -231 1118 -161 418 -411 745 -724 947
l-74 49 -138 -143 c-76 -79 -138 -147 -138 -151 0 -5 28 -23 62 -40 160 -81
319 -231 444 -420 231 -345 380 -874 410 -1452 l7 -138 -869 -2 -869 -3 0
-195 0 -195 869 -3 869 -2 -7 -138 c-25 -487 -145 -976 -317 -1297 -91 -170
-186 -296 -312 -413 -89 -82 -139 -118 -225 -162 -34 -17 -62 -35 -62 -40 0
-4 62 -72 138 -151 l138 -143 74 49 c449 290 755 821 889 1540 27 145 58 394
66 525 3 58 8 133 11 168 l6 62 579 0 579 0 2 -1647 3 -1648 195 0 195 0 3
1648 2 1647 579 0 579 0 6 -62 c3 -35 8 -110 11 -168 22 -380 109 -800 231
-1118 161 -418 411 -745 724 -947 l74 -49 138 143 c76 79 138 147 138 152 0 5
-28 23 -62 40 -160 80 -318 230 -444 419 -231 345 -380 874 -410 1452 l-7 138
869 2 869 3 0 195 0 195 -869 3 -869 2 7 138 c25 487 145 976 317 1297 91 170
186 296 312 413 90 83 137 117 225 161 34 17 62 35 62 40 0 5 -62 73 -138 152
l-138 143 -74 -49 c-449 -290 -755 -821 -889 -1540 -27 -145 -58 -394 -66
-525 -3 -58 -8 -133 -11 -167 l-6 -63 -579 0 -579 0 -2 1648 -3 1647 -191 3
c-104 1 -193 -1 -197 -4z"/>
</g>
</svg>
