<?xml version="1.0" standalone="no"?>
<!DOCTYPE svg PUBLIC "-//W3C//DTD SVG 20010904//EN"
 "http://www.w3.org/TR/2001/REC-SVG-20010904/DTD/svg10.dtd">
<svg version="1.0" xmlns="http://www.w3.org/2000/svg"
 width="700.000000pt" height="700.000000pt" viewBox="0 0 700.000000 700.000000"
 preserveAspectRatio="xMidYMid meet">
<metadata>
Created by potrace 1.11, written by Peter Selinger 2001-2013
</metadata>
<g transform="translate(0.000000,700.000000) scale(0.100000,-0.100000)"
fill="#000000" stroke="none">
<path d="M3300 5350 l0 -1650 -580 0 c-565 0 -580 0 -580 19 0 55 -23 342 -36
451 -100 850 -421 1488 -908 1811 -49 32 -93 59 -97 59 -10 0 -128 -118 -217
-218 -54 -60 -64 -77 -52 -84 8 -4 56 -32 105 -61 123 -71 294 -241 390 -387
234 -357 376 -864 411 -1472 l7 -118 -872 0 -871 0 0 -200 0 -200 871 0 872 0
-7 -117 c-35 -609 -177 -1116 -411 -1473 -96 -146 -267 -316 -390 -387 -49
-29 -97 -57 -105 -61 -12 -7 -2 -24 52 -84 89 -100 207 -218 217 -218 4 0 48
27 97 59 487 323 808 961 908 1811 13 109 36 396 36 451 0 19 15 19 580 19
l580 0 0 -1650 0 -1650 200 0 200 0 0 1650 0 1650 580 0 c565 0 580 0 580 -19
0 -55 23 -342 36 -451 100 -850 421 -1488 908 -1811 49 -32 93 -59 97 -59 10
0 128 118 217 218 54 60 64 77 52 84 -8 4 -55 32 -105 61 -123 71 -294 241
-390 387 -234 357 -376 864 -411 1472 l-7 118 872 0 871 0 0 200 0 200 -871 0
-872 0 7 118 c35 608 177 1115 411 1472 96 146 267 316 390 387 50 29 97 57
105 61 12 7 2 24 -52 84 -89 100 -207 218 -217 218 -4 0 -48 -27 -97 -59 -487
-323 -808 -961 -908 -1811 -13 -109 -36 -396 -36 -451 0 -19 -15 -19 -580 -19
l-580 0 0 1650 0 1650 -200 0 -200 0 0 -1650z"/>
</g>
</svg>
